<?xml version="1.0" encoding="iso-8859-1"?>
<!DOCTYPE svg PUBLIC "-//W3C//DTD SVG 1.1//EN" "http://www.w3.org/Graphics/SVG/1.1/DTD/svg11.dtd">
<svg 
 version="1.1" xmlns="http://www.w3.org/2000/svg" xmlns:xlink="http://www.w3.org/1999/xlink" x="0px" y="0px" width="512px"
	 height="512px" viewBox="0 0 512 512" style="enable-background:new 0 0 512 512;" xml:space="preserve"
><g id="de95281e9f52527e65bb740c5900cf21"><g></g><path style="display: inline;" d="M276.871,106.994c0,11.759-9.527,21.287-21.226,21.287l0,0c-11.82,0-21.347-9.528-21.347-21.287
		V21.787c0-11.699,9.527-21.227,21.347-21.227l0,0c11.698,0,21.226,9.528,21.226,21.227V106.994z M276.871,405.066
		c0-11.698-9.527-21.226-21.226-21.226l0,0c-11.82,0-21.347,9.527-21.347,21.226v85.146c0,11.699,9.527,21.227,21.347,21.227l0,0
		c11.698,0,21.226-9.527,21.226-21.227V405.066z M21.311,234.713c-11.699,0-21.226,9.528-21.226,21.287l0,0
		c0,11.819,9.527,21.347,21.226,21.347h85.146c11.819,0,21.347-9.527,21.347-21.347l0,0c0-11.759-9.528-21.287-21.347-21.287H21.311
		z M404.591,234.713c-11.818,0-21.347,9.528-21.347,21.287l0,0c0,11.819,9.528,21.347,21.347,21.347h85.147
		c11.818,0,21.347-9.527,21.347-21.347l0,0c0-11.759-9.528-21.287-21.347-21.287H404.591z M105.01,75.395
		c-8.322-8.321-21.829-8.321-30.151,0l0,0c-8.322,8.262-8.322,21.769,0,30.091l60.182,60.242c8.442,8.262,21.829,8.262,30.271,0l0,0
		c8.322-8.321,8.322-21.829,0-30.151L105.01,75.395z M74.859,406.514c-8.322,8.442-8.322,21.83,0,30.151l0,0
		c8.322,8.321,21.829,8.321,30.151,0l60.302-60.182c8.322-8.382,8.322-21.829,0-30.15l0,0c-8.442-8.322-21.829-8.322-30.271,0
		L74.859,406.514z M345.857,135.577c-8.201,8.322-8.201,21.83,0,30.151l0,0c8.321,8.262,21.829,8.262,30.15,0l60.182-60.242
		c8.322-8.322,8.322-21.829,0-30.091l0,0c-8.321-8.321-21.829-8.321-30.151,0L345.857,135.577z"></path></g></svg>