<?xml version="1.0" encoding="iso-8859-1"?>
<!DOCTYPE svg PUBLIC "-//W3C//DTD SVG 1.1//EN" "http://www.w3.org/Graphics/SVG/1.1/DTD/svg11.dtd">
<svg 
 version="1.1" xmlns="http://www.w3.org/2000/svg" xmlns:xlink="http://www.w3.org/1999/xlink" x="0px" y="0px" width="512px"
	 height="512px" viewBox="0 0 512 512" style="enable-background:new 0 0 512 512;" xml:space="preserve"
><g id="de95281e9f52527e65bb740c5900c043"><g></g><path style="display: inline;" d="M276.795,140.956c0,11.709-9.552,21.262-21.158,21.262l0,0c-11.813,0-21.365-9.553-21.365-21.262
		V55.754c0-11.709,9.552-21.262,21.365-21.262l0,0c11.606,0,21.158,9.552,21.158,21.262V140.956z M21.347,268.68
		c-11.709,0-21.262,9.553-21.262,21.262l0,0c0,11.761,9.552,21.313,21.262,21.313h85.252c11.709,0,21.159-9.553,21.159-21.313l0,0
		c0-11.709-9.45-21.262-21.159-21.262H21.347z M404.571,268.68c-11.71,0-21.262,9.553-21.262,21.262l0,0
		c0,11.761,9.552,21.313,21.262,21.313h85.149c11.812,0,21.364-9.553,21.364-21.313l0,0c0-11.709-9.553-21.262-21.364-21.262
		H404.571z M105.058,109.32c-8.32-8.32-21.878-8.32-30.198,0l0,0c-8.32,8.319-8.32,21.775,0,30.095l60.19,60.242
		c8.422,8.32,21.878,8.32,30.198,0l0,0c8.32-8.371,8.32-21.775,0-30.146L105.058,109.32z M376.017,380.278
		c-8.319-8.32-21.775-8.32-30.198,0l0,0c-8.319,8.371-8.319,21.724,0,30.043l60.293,60.293c8.32,8.32,21.775,8.32,30.096,0l0,0
		c8.319-8.319,8.319-21.775,0-30.095L376.017,380.278z M74.86,440.52c-8.32,8.319-8.32,21.775,0,30.095l0,0
		c8.32,8.32,21.878,8.32,30.198,0l60.19-60.293c8.32-8.319,8.32-21.672,0-30.043l0,0c-8.32-8.32-21.775-8.32-30.198,0L74.86,440.52z
		 M345.818,169.51c-8.319,8.371-8.319,21.775,0,30.146l0,0c8.423,8.32,21.879,8.32,30.198,0l60.19-60.242
		c8.319-8.32,8.319-21.775,0-30.095l0,0c-8.32-8.32-21.775-8.32-30.096,0L345.818,169.51z"></path></g></svg>