<?xml version="1.0" encoding="iso-8859-1"?>
<!DOCTYPE svg PUBLIC "-//W3C//DTD SVG 1.1//EN" "http://www.w3.org/Graphics/SVG/1.1/DTD/svg11.dtd">
<svg 
 version="1.1" xmlns="http://www.w3.org/2000/svg" xmlns:xlink="http://www.w3.org/1999/xlink" x="0px" y="0px" width="512px"
	 height="512px" viewBox="0 0 512 512" style="enable-background:new 0 0 512 512;" xml:space="preserve"
><g id="de95281e9f52527e65bb740c5900ad19"><g></g><path style="display: inline;" d="M275.828,108.68c0,11.625-9.419,21.046-21.044,21.046l0,0c-11.623,0-21.046-9.421-21.046-21.046
		V24.499c0-11.625,9.423-21.046,21.046-21.046l0,0c11.625,0,21.044,9.421,21.044,21.046V108.68z M275.828,403.318
		c0-11.624-9.419-21.043-21.044-21.043l0,0c-11.623,0-21.046,9.419-21.046,21.043v84.184c0,11.624,9.423,21.048,21.046,21.048l0,0
		c11.625,0,21.044-9.424,21.044-21.048V403.318z M23.282,234.956c-11.625,0-21.046,9.42-21.046,21.044l0,0
		c0,11.625,9.422,21.047,21.046,21.047h84.183c11.625,0,21.044-9.423,21.044-21.047l0,0c0-11.624-9.419-21.044-21.044-21.044H23.282
		z M105.969,77.421c-8.22-8.218-21.543-8.218-29.766,0l0,0c-8.216,8.221-8.216,21.543,0,29.765l59.531,59.527
		c8.219,8.217,21.541,8.217,29.76,0l0,0c8.219-8.221,8.219-21.542,0-29.763L105.969,77.421z M373.835,345.29
		c-8.22-8.219-21.542-8.219-29.762,0l0,0c-8.219,8.22-8.219,21.54,0,29.759l59.527,59.533c8.22,8.215,21.539,8.215,29.762,0l0,0
		c8.218-8.224,8.218-21.547,0-29.767L373.835,345.29z M76.203,404.815c-8.216,8.22-8.216,21.543,0,29.767l0,0
		c8.223,8.215,21.546,8.215,29.766,0l59.525-59.533c8.219-8.219,8.219-21.539,0-29.759l0,0c-8.219-8.219-21.541-8.219-29.76,0
		L76.203,404.815z M344.073,136.95c-8.219,8.221-8.219,21.542,0,29.763l0,0c8.22,8.217,21.542,8.217,29.762,0l59.527-59.527
		c8.218-8.221,8.218-21.543,0-29.765l0,0c-8.223-8.218-21.542-8.218-29.762,0L344.073,136.95z"></path></g></svg>